<?xml version="1.0" encoding="UTF-8" standalone="no" ?>
<!DOCTYPE svg PUBLIC "-//W3C//DTD SVG 1.1//EN" "http://www.w3.org/Graphics/SVG/1.1/DTD/svg11.dtd">
<svg xmlns="http://www.w3.org/2000/svg" xmlns:xlink="http://www.w3.org/1999/xlink" version="1.1" width="1080" height="1080" viewBox="0 0 1080 1080" xml:space="preserve">
<desc>Created with Fabric.js 5.2.4</desc>
<defs>
</defs>
<g transform="matrix(1 0 0 1 540 540)" id="56b571d6-7ae9-4204-a3ed-aa399c1d42df"  >
</g>
<g transform="matrix(1 0 0 1 540 540)" id="a5581226-b8cf-4984-acf3-e9354e510357"  >
<rect style="stroke: none; stroke-width: 1; stroke-dasharray: none; stroke-linecap: butt; stroke-dashoffset: 0; stroke-linejoin: miter; stroke-miterlimit: 4; fill: rgb(255,255,255); fill-rule: nonzero; opacity: 1; visibility: hidden;" vector-effect="non-scaling-stroke"  x="-540" y="-540" rx="0" ry="0" width="1080" height="1080" />
</g>
<g transform="matrix(1 0 0 1 509.64 425.06)"  >
<g style="" vector-effect="non-scaling-stroke"   >
		<g transform="matrix(33.33 0 0 33.33 -0.13 -0.03)"  >
<radialGradient id="SVGID_36" gradientUnits="userSpaceOnUse" gradientTransform="matrix(12.46 -7.02 5.57 9.89 9.38 8.35)"  cx="0" cy="0" r="1" fx="0" fy="0">
<stop offset="24.79%" style="stop-color:rgb(255,0,0);stop-opacity: 1"/>
<stop offset="86.39%" style="stop-color:rgb(194,0,0);stop-opacity: 1"/>
</radialGradient>
<path style="stroke: none; stroke-width: 1; stroke-dasharray: none; stroke-linecap: butt; stroke-dashoffset: 0; stroke-linejoin: miter; stroke-miterlimit: 4; fill: url(#SVGID_36); fill-rule: nonzero; opacity: 1;" vector-effect="non-scaling-stroke"  transform=" translate(-12, -12.02)" d="M 16.1315 3.71436 C 14.4172 3.71436 12.9029 4.57721 12 5.8915 C 11.0972 4.57721 9.58289 3.71436 7.86861 3.71436 C 5.10289 3.71436 2.85718 5.96007 2.85718 8.72578 C 2.85718 14.8344 12 20.3258 12 20.3258 C 12 20.3258 21.1429 14.8344 21.1429 8.72578 C 21.1429 5.96007 18.8972 3.71436 16.1315 3.71436 Z" stroke-linecap="round" />
</g>
		<g transform="matrix(33.33 0 0 33.33 35.69 7.31)"  >
<radialGradient id="SVGID_37" gradientUnits="userSpaceOnUse" gradientTransform="matrix(10.73 -6.05 4.8 8.51 9.74 7.47)"  cx="0" cy="0" r="1" fx="0" fy="0">
<stop offset="24.79%" style="stop-color:rgb(255,0,0);stop-opacity: 1"/>
<stop offset="100%" style="stop-color:rgb(194,0,0);stop-opacity: 1"/>
</radialGradient>
<path style="stroke: none; stroke-width: 1; stroke-dasharray: none; stroke-linecap: butt; stroke-dashoffset: 0; stroke-linejoin: miter; stroke-miterlimit: 4; fill: url(#SVGID_37); fill-rule: nonzero; opacity: 0.5;" vector-effect="non-scaling-stroke"  transform=" translate(-13.07, -12.24)" d="M 18.2056 4.16016 C 20.9485 8.53158 18.4228 14.2687 15.3885 15.8973 C 12.0399 17.6973 9.74847 16.8516 5.00562 14.1602 C 7.70847 17.743 11.9999 20.3202 11.9999 20.3202 C 11.9999 20.3202 21.1428 14.8287 21.1428 8.72016 C 21.1428 6.6973 19.937 4.94873 18.2056 4.16016 Z" stroke-linecap="round" />
</g>
		<g transform="matrix(33.33 0 0 33.33 -0.13 -0.03)"  >
<radialGradient id="SVGID_38" gradientUnits="userSpaceOnUse" gradientTransform="matrix(12.46 -7.02 5.57 9.89 9.38 8.35)"  cx="0" cy="0" r="1" fx="0" fy="0">
<stop offset="0%" style="stop-color:rgb(255,255,255);stop-opacity: 0.25"/>
<stop offset="100%" style="stop-color:rgb(255,255,255);stop-opacity: 0"/>
</radialGradient>
<path style="stroke: none; stroke-width: 1; stroke-dasharray: none; stroke-linecap: butt; stroke-dashoffset: 0; stroke-linejoin: miter; stroke-miterlimit: 4; fill: url(#SVGID_38); fill-rule: nonzero; opacity: 0.5;" vector-effect="non-scaling-stroke"  transform=" translate(-12, -12.02)" d="M 16.1315 3.71436 C 14.4172 3.71436 12.9029 4.57721 12 5.8915 C 11.0972 4.57721 9.58289 3.71436 7.86861 3.71436 C 5.10289 3.71436 2.85718 5.96007 2.85718 8.72578 C 2.85718 14.8344 12 20.3258 12 20.3258 C 12 20.3258 21.1429 14.8344 21.1429 8.72578 C 21.1429 5.96007 18.8972 3.71436 16.1315 3.71436 Z" stroke-linecap="round" />
</g>
		<g transform="matrix(33.33 0 0 33.33 -0.13 -0.03)"  >
<radialGradient id="SVGID_39" gradientUnits="userSpaceOnUse" gradientTransform="matrix(9.36 -4.63 2.29 4.63 14.53 13.2)"  cx="0" cy="0" r="1" fx="0" fy="0">
<stop offset="0%" style="stop-color:rgb(189,39,25);stop-opacity: 0.25"/>
<stop offset="100%" style="stop-color:rgb(189,39,25);stop-opacity: 0"/>
</radialGradient>
<path style="stroke: none; stroke-width: 1; stroke-dasharray: none; stroke-linecap: butt; stroke-dashoffset: 0; stroke-linejoin: miter; stroke-miterlimit: 4; fill: url(#SVGID_39); fill-rule: nonzero; opacity: 0.5;" vector-effect="non-scaling-stroke"  transform=" translate(-12, -12.02)" d="M 16.1315 3.71436 C 14.4172 3.71436 12.9029 4.57721 12 5.8915 C 11.0972 4.57721 9.58289 3.71436 7.86861 3.71436 C 5.10289 3.71436 2.85718 5.96007 2.85718 8.72578 C 2.85718 14.8344 12 20.3258 12 20.3258 C 12 20.3258 21.1429 14.8344 21.1429 8.72578 C 21.1429 5.96007 18.8972 3.71436 16.1315 3.71436 Z" stroke-linecap="round" />
</g>
		<g transform="matrix(33.33 0 0 33.33 -155.16 -160.89)"  >
<radialGradient id="SVGID_40" gradientUnits="userSpaceOnUse" gradientTransform="matrix(3.45 -1.37 0.85 2.14 7.35 7.19)"  cx="0" cy="0" r="1" fx="0" fy="0">
<stop offset="0%" style="stop-color:rgb(255,255,255);stop-opacity: 1"/>
<stop offset="100%" style="stop-color:rgb(255,255,255);stop-opacity: 0"/>
</radialGradient>
<path style="stroke: none; stroke-width: 1; stroke-dasharray: none; stroke-linecap: butt; stroke-dashoffset: 0; stroke-linejoin: miter; stroke-miterlimit: 4; fill: url(#SVGID_40); fill-rule: nonzero; opacity: 0.24;" vector-effect="non-scaling-stroke"  transform=" translate(-7.35, -7.19)" d="M 10.7486 5.74883 C 11.2514 6.93169 10.1371 8.5374 8.25714 9.33169 C 6.37714 10.126 4.45143 9.8174 3.94857 8.64026 C 3.44571 7.46312 4.56 5.85169 6.44 5.0574 C 8.32 4.26312 10.2457 4.56597 10.7486 5.74883 Z" stroke-linecap="round" />
</g>
		<g transform="matrix(33.33 0 0 33.33 86.74 -172.67)"  >
<radialGradient id="SVGID_41" gradientUnits="userSpaceOnUse" gradientTransform="matrix(2.33 -2.01 1.25 1.45 14.6 6.85)"  cx="0" cy="0" r="1" fx="0" fy="0">
<stop offset="0%" style="stop-color:rgb(255,255,255);stop-opacity: 1"/>
<stop offset="100%" style="stop-color:rgb(255,255,255);stop-opacity: 0"/>
</radialGradient>
<path style="stroke: none; stroke-width: 1; stroke-dasharray: none; stroke-linecap: butt; stroke-dashoffset: 0; stroke-linejoin: miter; stroke-miterlimit: 4; fill: url(#SVGID_41); fill-rule: nonzero; opacity: 0.24;" vector-effect="non-scaling-stroke"  transform=" translate(-14.61, -6.84)" d="M 16.8742 4.78885 C 17.5885 5.57742 17.1485 7.13742 15.8971 8.26885 C 14.6456 9.40028 13.0513 9.68028 12.3371 8.8917 C 11.6228 8.10313 12.0628 6.54313 13.3142 5.41171 C 14.5656 4.28028 16.1599 4.00028 16.8742 4.78885 Z" stroke-linecap="round" />
</g>
		<g transform="matrix(33.33 0 0 33.33 96.17 -0.03)"  >
<linearGradient id="SVGID_42" gradientUnits="userSpaceOnUse" gradientTransform="matrix(1 0 0 1 0 0)"  x1="13.8868" y1="26.8498" x2="15.6583" y2="2.96408">
<stop offset="0%" style="stop-color:rgb(134,8,5);stop-opacity: 1"/>
<stop offset="100%" style="stop-color:rgb(189,39,25);stop-opacity: 0"/>
</linearGradient>
<path style="stroke: none; stroke-width: 1; stroke-dasharray: none; stroke-linecap: butt; stroke-dashoffset: 0; stroke-linejoin: miter; stroke-miterlimit: 4; fill: url(#SVGID_42); fill-rule: nonzero; opacity: 0.32;" vector-effect="non-scaling-stroke"  transform=" translate(-14.89, -12.02)" d="M 16.2229 5.04578 C 18.7372 5.90293 21.1372 9.61721 17.0801 14.2458 C 14.6515 17.0172 12.0001 18.4172 8.62866 17.8686 C 10.4515 19.3886 12.0058 20.3258 12.0058 20.3258 C 12.0058 20.3258 21.1487 14.8344 21.1487 8.72578 C 21.1429 5.96007 18.8972 3.71436 16.1315 3.71436 C 14.4172 3.71436 12.9029 4.57721 12.0001 5.8915 C 12.0001 5.8915 14.3829 4.41721 16.2229 5.04578 Z" stroke-linecap="round" />
</g>
</g>
</g>
<g transform="matrix(8.03 -2.58 2.58 8.03 430.04 596.57)"  >
<path style="stroke: none; stroke-width: 1; stroke-dasharray: none; stroke-linecap: butt; stroke-dashoffset: 0; stroke-linejoin: miter; stroke-miterlimit: 4; fill: rgb(255,217,96); fill-rule: nonzero; opacity: 1;"  transform=" translate(-12, -11.95)" d="M 12.9121 1.59053 C 12.7508 1.2312 12.3936 1 11.9997 1 C 11.6059 1 11.2487 1.2312 11.0874 1.59053 L 8.27041 7.86702 L 1.43062 8.60661 C 1.03903 8.64895 0.708778 8.91721 0.587066 9.2918 C 0.465355 9.66639 0.574861 10.0775 0.866772 10.342 L 5.96556 14.9606 L 4.55534 21.6942 C 4.4746 22.0797 4.62768 22.4767 4.94632 22.7082 C 5.26497 22.9397 5.68983 22.9626 6.03151 22.7667 L 11.9997 19.3447 L 17.968 22.7667 C 18.3097 22.9626 18.7345 22.9397 19.0532 22.7082 C 19.3718 22.4767 19.5249 22.0797 19.4441 21.6942 L 18.0339 14.9606 L 23.1327 10.342 C 23.4246 10.0775 23.5341 9.66639 23.4124 9.2918 C 23.2907 8.91721 22.9605 8.64895 22.5689 8.60661 L 15.7291 7.86702 L 12.9121 1.59053 Z" stroke-linecap="round" />
</g>
<g transform="matrix(1.91 0.32 -0.32 1.91 683.8 225.55)"  >
<path style="stroke: none; stroke-width: 1; stroke-dasharray: none; stroke-linecap: butt; stroke-dashoffset: 0; stroke-linejoin: miter; stroke-miterlimit: 4; fill: rgb(255,217,96); fill-rule: nonzero; opacity: 1;"  transform=" translate(-12, -11.95)" d="M 12.9121 1.59053 C 12.7508 1.2312 12.3936 1 11.9997 1 C 11.6059 1 11.2487 1.2312 11.0874 1.59053 L 8.27041 7.86702 L 1.43062 8.60661 C 1.03903 8.64895 0.708778 8.91721 0.587066 9.2918 C 0.465355 9.66639 0.574861 10.0775 0.866772 10.342 L 5.96556 14.9606 L 4.55534 21.6942 C 4.4746 22.0797 4.62768 22.4767 4.94632 22.7082 C 5.26497 22.9397 5.68983 22.9626 6.03151 22.7667 L 11.9997 19.3447 L 17.968 22.7667 C 18.3097 22.9626 18.7345 22.9397 19.0532 22.7082 C 19.3718 22.4767 19.5249 22.0797 19.4441 21.6942 L 18.0339 14.9606 L 23.1327 10.342 C 23.4246 10.0775 23.5341 9.66639 23.4124 9.2918 C 23.2907 8.91721 22.9605 8.64895 22.5689 8.60661 L 15.7291 7.86702 L 12.9121 1.59053 Z" stroke-linecap="round" />
</g>
</svg>